<svg xmlns="http://www.w3.org/2000/svg" width="32.161" height="49.005" viewBox="0 0 32.161 49.005">
  <g id="Group_9545" data-name="Group 9545" transform="matrix(-0.259, 0.966, -0.966, -0.259, 33.463, 5.842)">
    <g id="Group_9533" data-name="Group 9533" transform="translate(0 1.348)">
      <path id="Path_378" data-name="Path 378" d="M44.191,3.253C43.5,1.1,42.431,0,40.939,0H5.844A4.492,4.492,0,0,0,1.793,3.253,14.5,14.5,0,0,0,0,10.759c0,4.788,1.793,7.214,1.793,7.214a4.861,4.861,0,0,0,4.051,3.253H40.939c1.425,0,2.742-1.741,3.253-3.253a23.871,23.871,0,0,0,.855-7.214A27.441,27.441,0,0,0,44.191,3.253Z" transform="translate(0 0)" fill="#dbdcde"/>
      <path id="Path_379" data-name="Path 379" d="M4.788,19.338A4.059,4.059,0,0,1,1.75,16.805,13.75,13.75,0,0,1,0,9.818,13.8,13.8,0,0,1,1.758,2.507,3.1,3.1,0,0,1,4.788,0H40.742c.35,0,1.415,0,2.218,2.515a27.478,27.478,0,0,1,.816,7.3A23.9,23.9,0,0,1,42.97,16.8c-.452,1.335-1.512,2.543-2.228,2.543Z" transform="translate(0.634 0.944)" fill="#e7e8e9"/>
      <path id="Path_380" data-name="Path 380" d="M4.211,18.184a3.526,3.526,0,0,1-2.483-2.111A13.384,13.384,0,0,1,0,9.241,13.931,13.931,0,0,1,1.733,2.1,2.547,2.547,0,0,1,4.211,0H40.165c.659,0,1.221.711,1.669,2.113a27.273,27.273,0,0,1,.789,7.128,23.747,23.747,0,0,1-.776,6.793c-.427,1.263-1.346,2.15-1.681,2.15Z" transform="translate(1.211 1.521)" fill="#fff"/>
    </g>
    <g id="Group_9534" data-name="Group 9534" transform="translate(3.617 3.533)">
      <path id="Path_381" data-name="Path 381" d="M0,2.589S.583.185,9.275,0C9.275,0,3.267.925,0,2.589Z" transform="translate(0 0)" fill="#e7e8e9"/>
      <path id="Path_382" data-name="Path 382" d="M0,0S.583,2.4,9.275,2.589C9.275,2.589,3.267,1.665,0,0Z" transform="translate(0 14.255)" fill="#e7e8e9"/>
    </g>
    <g id="Group_9539" data-name="Group 9539" transform="translate(11.548 3.425)">
      <g id="Group_9535" data-name="Group 9535" transform="translate(3.265 0)">
        <path id="Path_383" data-name="Path 383" d="M0,0H26.34L22.594,1.618H9.3Z" fill="#07191f"/>
        <path id="Path_384" data-name="Path 384" d="M10.11,0H3.774L0,1.618H6.336Z" transform="translate(10.049 0)" fill="#1a262c"/>
        <rect id="Rectangle_34" data-name="Rectangle 34" width="0.716" height="1.618" transform="translate(14.811 0)" fill="#fff"/>
      </g>
      <g id="Group_9536" data-name="Group 9536" transform="translate(3.265 15.371)">
        <path id="Path_385" data-name="Path 385" d="M0,1.618H26.34L22.594,0H9.3Z" transform="translate(0 0)" fill="#07191f"/>
        <path id="Path_386" data-name="Path 386" d="M10.11,1.618H3.774L0,0H6.336Z" transform="translate(10.049 0)" fill="#1a262c"/>
        <rect id="Rectangle_35" data-name="Rectangle 35" width="0.716" height="1.618" transform="translate(14.811 0)" fill="#fff"/>
      </g>
      <g id="Group_9537" data-name="Group 9537" transform="translate(0 0.346)">
        <path id="Path_387" data-name="Path 387" d="M9.215,12.715a14.778,14.778,0,0,1-.528-4.463,16.988,16.988,0,0,1,.528-4.643C9.641,2.275,10.3,1.6,11.228,1.6L2.541,0C1.618,0,.955,2.275.529,3.609A16.974,16.974,0,0,0,0,8.253a14.767,14.767,0,0,0,.529,4.463c.316.936,1.13,3.609,2.012,3.609l8.687-1.6C10.346,14.728,9.532,13.651,9.215,12.715Z" transform="translate(0 0)" fill="#07191f"/>
        <path id="Path_388" data-name="Path 388" d="M.529,3.609A16.974,16.974,0,0,0,0,8.253a14.763,14.763,0,0,0,.529,4.463c.316.936,1.13,3.609,2.012,3.609l1.517-.279a6.461,6.461,0,0,0,.65-1.629A27.571,27.571,0,0,0,5.249,8.2a31.768,31.768,0,0,0-.54-6.47A8.061,8.061,0,0,0,4.255.315L2.541,0C1.618,0,.955,2.275.529,3.609Z" transform="translate(0 0)" fill="#1a262c"/>
      </g>
      <g id="Group_9538" data-name="Group 9538" transform="translate(26.344 0.346)">
        <path id="Path_389" data-name="Path 389" d="M1.166,12.715a24.88,24.88,0,0,0,.306-4.463,28.684,28.684,0,0,0-.306-4.643C.919,2.275.535,1.6,0,1.6L3.853,0c.535,0,.919,2.275,1.166,3.609a28.688,28.688,0,0,1,.306,4.643,24.883,24.883,0,0,1-.306,4.463c-.184.936-.656,3.609-1.166,3.609L0,14.728C.511,14.728.983,13.651,1.166,12.715Z" transform="translate(0 0)" fill="#07191f"/>
        <path id="Path_390" data-name="Path 390" d="M1.706,0,1.082.259A7.18,7.18,0,0,0,.528,1.873,31.045,31.045,0,0,0,0,8.2a26.951,26.951,0,0,0,.528,6.078,6.024,6.024,0,0,0,.834,1.906l.344.142c.511,0,.983-2.674,1.166-3.609a24.88,24.88,0,0,0,.306-4.463,28.684,28.684,0,0,0-.306-4.643C2.625,2.275,2.241,0,1.706,0Z" transform="translate(2.147 0)" fill="#1a262c"/>
      </g>
    </g>
    <g id="Group_9540" data-name="Group 9540" transform="translate(41.321 18.598)">
      <path id="Path_391" data-name="Path 391" d="M0,3.934C1.274,3.664,2.406,2.1,2.871.723c0,0,.085-.242.2-.723A4.106,4.106,0,0,0,0,3.934Z" transform="translate(0 0)" fill="#e82727"/>
      <path id="Path_392" data-name="Path 392" d="M3.029.175C3.043.12,3.057.062,3.073,0A4.106,4.106,0,0,0,0,3.934a2.166,2.166,0,0,0,.427-.14A4,4,0,0,1,3.029.175Z" transform="translate(0 0)" fill="#d62424"/>
    </g>
    <g id="Group_9541" data-name="Group 9541" transform="translate(41.325 1.374)">
      <path id="Path_393" data-name="Path 393" d="M0,0A4.1,4.1,0,0,0,3.019,3.806c-.09-.382-.152-.579-.152-.579C2.239,1.262,1.292.177,0,0Z" transform="translate(0 0)" fill="#e82727"/>
      <path id="Path_394" data-name="Path 394" d="M.427.1A2.576,2.576,0,0,0,0,0,4.1,4.1,0,0,0,3.019,3.806c-.015-.066-.03-.126-.044-.18A3.982,3.982,0,0,1,.427.1Z" transform="translate(0 0)" fill="#d62424"/>
    </g>
    <g id="Group_9542" data-name="Group 9542" transform="translate(15.362 0)">
      <path id="Path_395" data-name="Path 395" d="M.486,0l1.03,4.131A2.923,2.923,0,0,1,.486,0Z" transform="translate(0 19.779)" fill="#b4b7bb"/>
      <path id="Path_396" data-name="Path 396" d="M.486,4.131,1.517,0A2.923,2.923,0,0,0,.486,4.131Z" transform="translate(0 0)" fill="#b4b7bb"/>
    </g>
    <g id="Group_9543" data-name="Group 9543" transform="translate(1.201 1.352)">
      <path id="Path_397" data-name="Path 397" d="M.592,3.25A19.454,19.454,0,0,0,0,6.34,14.241,14.241,0,0,0,4.5,0,4.523,4.523,0,0,0,.592,3.25Z" transform="translate(0 0)" fill="#b4b7bb"/>
      <path id="Path_398" data-name="Path 398" d="M0,1.533a6.273,6.273,0,0,0,2.543-.418A10.09,10.09,0,0,0,2.957,0,4.287,4.287,0,0,0,0,1.533Z" transform="translate(1.542 0)" fill="#e82727"/>
      <path id="Path_399" data-name="Path 399" d="M4.012.058a14.224,14.224,0,0,1-3.9,5.477c-.038.249-.076.518-.112.8A14.241,14.241,0,0,0,4.5,0,3.422,3.422,0,0,0,4.012.058Z" transform="translate(0 0)" fill="#a5aaae"/>
      <path id="Path_400" data-name="Path 400" d="M.557.058A10.725,10.725,0,0,1,0,1.328a5.126,5.126,0,0,0,.629-.212A10.115,10.115,0,0,0,1.043,0,3.421,3.421,0,0,0,.557.058Z" transform="translate(3.456 0)" fill="#d62424"/>
    </g>
    <g id="Group_9544" data-name="Group 9544" transform="translate(1.157 16.076)">
      <path id="Path_401" data-name="Path 401" d="M0,0A16.664,16.664,0,0,0,.636,3.244a4.9,4.9,0,0,0,3.942,3.25A14.19,14.19,0,0,0,0,0Z" fill="#b4b7bb"/>
      <path id="Path_402" data-name="Path 402" d="M3.041,1.66A10.062,10.062,0,0,0,2.589.42,6.305,6.305,0,0,0,0,.005,4.864,4.864,0,0,0,3.041,1.66Z" transform="translate(1.537 4.834)" fill="#e82727"/>
      <path id="Path_403" data-name="Path 403" d="M4.054,6.414a2.844,2.844,0,0,0,.525.08A14.19,14.19,0,0,0,0,0C.039.331.081.637.124.917A14.257,14.257,0,0,1,4.054,6.414Z" fill="#a5aaae"/>
      <path id="Path_404" data-name="Path 404" d="M.621,1.388a2.843,2.843,0,0,0,.524.08A10.07,10.07,0,0,0,.693.228,5.127,5.127,0,0,0,0,0,10.837,10.837,0,0,1,.621,1.388Z" transform="translate(3.433 5.026)" fill="#d62424"/>
    </g>
  </g>
</svg>
