<svg xmlns="http://www.w3.org/2000/svg" xmlns:xlink="http://www.w3.org/1999/xlink" width="413.793" height="896" viewBox="0 0 413.793 896">
  <defs>
    <clipPath id="clip-path">
      <rect id="Mask" width="413.793" height="896" transform="translate(0.345)" fill="#2424e2"/>
    </clipPath>
  </defs>
  <g id="Map" transform="translate(-0.345)" clip-path="url(#clip-path)">
    <g id="Map-2" data-name="Map" transform="translate(-79)">
      <path id="Path_" data-name="Path " d="M0,0H569.909V896H0Z" fill="#f1f1f1"/>
      <path id="Intersection_" data-name="Intersection " d="M364.705,896l-14.853-37.368L322.316,865.3,318.432,896h-6.17l9.713-76.855-16.8,1.817L274.329,895.9h-12.91l16.223-39.488-37.019-7.675L220.4,894.484l4,1.515H213.2l10.055-22.722-40.218-13.634A382.915,382.915,0,0,1,163.044,896H148.876c18.28-27.873,32.219-59.382,41.7-85.035l-86.607-5.857L121.112,896h-12.34l-5.483-28.984-49.7,7.474-.457,5.858L63.527,896H56.443l-4.113-6.16L51.873,896H45.817l1.714-20.6L11.2,880.85,12.455,895.9H.23l-.23-2.8V720.537l10.855-32.783L0,686.939V676.2l14.282,1.055L28.45,634.43,0,622.3V602.549l7.542,3.2,26.278-81.8L9.027,511.624,0,536.138V518.806l3.314-9L0,509.316V503.9l5.256.751,17.71-48.072L0,448.313v-5.846l24.794,8.965,31.764-86.044L0,370.149V359.275l85.236-7.116L24.223,290.25C20.054,290.6,8.385,291.638,0,292.3v-5.268L22.281,285.1,20,254.9,0,257.157V239.075l17.71-1.946L13.6,214.2c-4.98.691-9.651,1.344-13.6,1.884v-5.533l12.683-1.7L8.456,185.724,0,186.7v-5.419l7.427-.914L1.714,148.659,0,148.807V138.07l47.76-4.054L40.218,86.55C27.5,88.873,13.967,90.648,0,91.981V81.2q3.509-.333,6.97-.71L3.428,37.77,0,37.4V26.5l2.4.259L.23.1H12.455l6.627,78.875c7.084-1.01,13.939-2.02,20.566-3.333L45.817.1h6.057L45.817,74.329c18.053-3.837,33.82-8.988,45.931-15.956.8-.505,1.714-1.111,2.628-1.615L56.558.1h7.084l16.11,24.138L110.258,8.18,108.773.1h12.339L126.6,29.287A224.11,224.11,0,0,0,148.876.1h14.167q-2.571,4.242-5.485,8.484l45.818,14.038L213.316.1h11.2l31.992,11.817L261.418.1h12.91L273.3,2.726l37.362,10.2L312.262.1h6.17L316.49,14.542l29.249,8.08c4-1.01,14.054-3.535,25.366-6.261L364.59,0h6.4c2.4,5.958,4.456,11.31,5.942,14.947,9.369-2.324,18.852-4.646,25.936-6.363L398.181.1H420.8l2.057,3.535L436.686.1h43.532c-21.024,5.352-40.447,10.4-51.987,13.332l19.424,35.044,45.358-6.767L487.187.1h12.225l5.713,39.892,46.388-6.969L558.369.1h11.54V42.988l-3.086,14.476,3.086.8V63.8l-3.771-.985,3.771,7.2V95.609l-7.77-14.815-17.023,82a42.477,42.477,0,0,1,13.254,12.221l11.54-6.137v6.361l-8.684,4.622a36.537,36.537,0,0,1,3.656,15.654c0,.808-.114,1.515-.114,2.322l5.141.852v18.253l-11.083-1.835c-6.4,9.8-17.6,16.967-30.735,18.987L511.067,281.06l58.842,10.432V297L542.83,292.17c-.685,3.837-2.057,11.21-3.541,19.188l30.62,3.578v5.426l-31.535-3.752c-1.37,7.574-2.742,15.047-3.656,19.9l35.192,5.875V353.3l-37.476-6.191-13.94,56.354L569.909,361v7.451l-52.33,43.092,20.909,22.621,31.42-16.488V430.1l-23.651,12.441,17.6,18.886,6.056-3.166v6.314l-2.285,1.195,2.285,2.471v8.438L541,445.373,479.99,477.388l89.919,14.289v18.235l-23.651-3.74-11.425,60.09,35.077,7.379v5.523L533.8,571.513l-6.742,35.65c15.082,2.515,29.691,5.031,42.847,7.257v10.92l-28.565-4.845L532.2,676.746,560.2,681.8l9.713-35.77v23.309l-3.657,13.47,3.657.653v11l-39.3-7.007-5.37,33.025,44.674,7.79v5.383l-45.588-7.921-6.513,40.4,52.1,7.89v10.939l-53.815-8.124-6.4,39.689,60.214,7.276v10.765l-26.165-3.194-6.627,38.68,27.993-7.169,4.8-22.761V895.9H558.141L562.6,874.69c-14.626,3.837-39.076,10.1-63.87,16.462l.685,4.746H487.187l-.228-1.717c-2.286.606-4.456,1.111-6.74,1.717H436.686l50.044-12.725,4.456-27.875-80.665,22.117L420.8,896H398.181l-23.993-43.224-18.509,4.444c2.627,6.665,9.711,24.54,15.424,38.781Zm134.707-16.159,31.192-7.978,6.97-41-29.707-3.635ZM7.542,837.626l3.2,37.872,91.518-13.836-6.17-32.52ZM397.154,853.38l10.625,19.088,30.507-8.484-5.713-19.592Zm-211.716,1.213,40.1,13.532,9.141-20.6-42.16-8.786C190.351,843.989,187.951,849.24,185.438,854.593ZM438.4,842.978l5.713,19.491L492.1,849.341l3.314-20.8Zm-110.257-24.54L323,859.542l48.444-11.715-17.937-32.318Zm-81.007,20.7,34.733,7.171,10.968-26.864L270.9,811.469ZM375.788,814.8l15.995,28.783,105.573-26.662,3.2-19.593L393.612,783.7Zm-179.04,13.836,43.989,9.088,25.594-29.792-24.68-37.165-25.136-.606A541.937,541.937,0,0,1,196.748,828.638ZM4.228,797.432l2.4,29.388,87.52-8.382-5.141-27.369Zm303.349,17.977,43.189-4.949-14.4-25.854a49.49,49.49,0,0,1-14.054,2.02,25.78,25.78,0,0,1-2.856-.1Zm-32.791-8.383,20.223,7.372,12.455-30.2a43.166,43.166,0,0,1-9.484-4.141Zm78.836-32.014,18.739,33.731L400.7,759.458l-34.733-5.252A37.664,37.664,0,0,1,353.622,775.011ZM102.945,799.552l89.577,6.059c5.37-15.048,9.254-27.571,11.54-35.751L96.889,767.134Zm167.5,3.837,22.852-26.56a38.417,38.417,0,0,1-5.371-4.848l-39.075-1.01ZM3.886,792.18l84.206-6.363-3.543-18.885L1.6,764.811Zm452.8-5.857,44.673,5.655,2.742-16.967-42.959-6.362Zm-60.214-7.676,54.157,6.868,4.571-17.876-48.331-7.169Zm-98.26-31.307c0,11.816,10.855,21.31,24.109,21.31,13.369,0,24.109-9.595,24.109-21.31,0-11.815-10.855-21.31-24.109-21.31S298.323,735.624,298.208,747.339Zm139.165,6.767,68.438,10.3,3.428-20.9-67.525-11.211ZM248.735,753.1l29.935.707a24.422,24.422,0,0,1-.572-6.463,37.758,37.758,0,0,1,.572-6.261l-25.364-10.806Zm-51.415-24.54-3.313,23.127,48.444,1.211,5.027-25.045-38.389-16.361Zm164.186.606a34.689,34.689,0,0,1,4.913,14.24l58.955,8.887,13.6-68.169Zm-264.388,20.1,90.833,2.323,3.086-21.814-86.15-16.462ZM3.886,746.936l80.892,2.02,2.971-13.735L10.169,728.05Zm438.857-20,67.41,11.311,2.514-15.856-63.183-28.883Zm-389.727-.4,35.877,3.333,13.824-63.828L72.9,653.316ZM12,722.8,46.96,726.03,67.3,650.993,39.533,639.177Zm148.189-4.443,32.676,6.262,10.626-15.553-29.935-12.725Zm192.177.2a43.892,43.892,0,0,1,5.942,5.958l82.15-47.667,1.029-5.252-67.639-12.119ZM228.626,699.975l57.7,24.54A43.419,43.419,0,0,1,300.837,713.1l-9.484-33.429Zm-122.6,7.978,47.987,9.19,14.054-23.227-54.044-23.026Zm344.595-20,62.956,28.783,5.027-31.409-65.126-11.613ZM299.008,633.117l21.48,75.037h1.829a47.754,47.754,0,0,1,12.112,1.515l23.879-66.15-10.855-23.732ZM188.294,682.7l32.791,14.039L262.9,683.21l-7.884-25.046Zm60.441-64.332L268.5,681.189l21.365-6.867L271.7,610.6Zm-117.8,39.892,50.044,21.31L204.4,670.99l-19.881-30.8Zm324.6,4.848,64.784,11.614,9.141-56.252-62.841-10.706Zm-265.3-24.945L210,668.868l43.3-15.956-10.283-32.62Zm187.379,11.008,66.041,11.817,11.083-55.243-57.813-9.8Zm-289.98-9.391L115.857,651.8l58.955-19.9L106.372,590.4Zm242.108-73.119,31.534,68.877,35.99-99.274Zm-311,43.831,57.928,24.642,18.966-50.193L34.848,560.3ZM150.475,565.05l-7.2,41.2,38.389,23.33,23.308-7.878,18.4-82.914c-16.338-5.05-35.305-10.908-51.872-16.058Zm124.539-16.26,22.623,79.177,47.644-13.128L310.891,539.8Zm-63.3,70.593,57.128-19.289-14.853-51.909c-6.17-1.92-14.853-4.646-24.794-7.676Zm263.017-21.208c15.082,2.524,30.849,5.25,46.273,7.877l19.2-100.891-9.826-1.615Zm-366.3-13.028,29.364,17.775,6.284-36.257-27.65-2.928Zm292.266.5c13.6,2.324,38.961,6.565,67.868,11.513l4.228-7.17-57.128-45.748Zm47.874-22.318,26.965,21.712,48.444-82.409-30.849-4.948ZM36.449,555.051l61.126,24.743,6.97-18.482L41.932,538.185Zm279.7-18.078,11.312,24.743L398.64,529.7l-63.87-14.441ZM118.6,558.687l27.193,2.828,20-40.5c-12.682-3.939-23.423-7.271-29.592-9.191Zm299.123-20.1L444,559.7l42.732-63.019L435.772,488.6Zm-342.425.3,33.135,12.221,16.11-42.618-32.906-8.989Zm198.12,4.646,37.361-9.393,17.482-20.4-67.64-15.25Zm-80.323-19.795,58.957,18.28L238.11,493.244l-33.591-8.887ZM45.36,527.783l24.452,8.988,32.9-79.177L70.61,449.11Zm92.662-21.108,49.359,15.25,11.312-39.185-46.96-12.321Zm243.822,8.08L403.21,519.6l10.855-29.792-22.508-6.665ZM63.185,364.782,10.97,506.373l24.564,12.219L85.578,362.965ZM343.8,506.272l32.221,7.271,9.826-32.014-27.308-8.078Zm-38.275-66.351-22.395,11.412,14.167,44.234,34.62,7.777,30.621-67.767Zm-211.6,54.434c6.855,1.919,23.652,6.565,32.678,8.989l13.6-35.953-31.648-8.282Zm157.787-26.964,5.485,19.289,33.135,7.473L277.642,454.16Zm109,1.009,55.186,16.26L433.6,435.88l-50.273-17.573Zm-179.5-1.413L234.8,481.024l-13.367-46.659Zm260.845,4.443,19.652,3.131,37.933-19.9c1.829-7.675,5.828-23.632,10.169-41.305l-43.417-9.089ZM120.77,388.01,105.23,446.99l69.125,18.178,45.473-36.66L207.6,385.788ZM238.8,422.045l11.425,39.892,49.816-25.349c-5.942-7.07-23.308-27.469-28.678-33.832Zm268.044,28.682,26.393-13.837L515.065,417.3ZM73.924,438.81,99.4,445.475l9.94-37.771-23.308-6.565Zm202.46-39.185,29.593,34.842,58.955-4.444,1.142-2.524L305.75,382.153Zm109.23,13.634,49.93,17.471,11.425-31.61-47.987-15.452Zm-40.562-8.585,23.423,17.573,19.537-43.426-14.739-9.494Zm-112.084-2.828,4.226,14.645,30.392-18.078L256.962,386.6Zm235.253-2.626,42.846,8.887c6.17-24.642,12.682-51,15.31-61.908l-36.791-6.06ZM98.6,361.854,87.635,395.888l23.08,6.564,11.2-42.517Zm192.978,2.726,48.787,36.559,27.993-35.044-39.533-25.247Zm-29.705,18.785c3.428,3.837,8.226,9.19,10.74,12.017l28.221-16.865-14.4-10.806Zm139.277-4.646,47.645,15.25,7.312-20.3c-9.6-4.241-26.279-11.917-43.417-20.6ZM210.46,322.365l19.423,68.169L283.7,356.3l-14.854-43.831ZM128.31,359.43l-6.17,23.228L206,380.436l-7.655-26.864Zm205.774-21.915,56.328,36.055,11.655-25.955c-14.282-7.474-27.993-15.452-37.362-22.623a54.553,54.553,0,0,1-4.57-4.039Zm35.534-23.227a33.607,33.607,0,0,0,2.971,2.524c21.138,16.058,67.068,37.468,87.292,46.557L473.363,326.2l-54.844-48.981ZM89.691,280.051l9.484,71,28.335-2.424-10.74-72.108Zm193.551,37.77,10.853,31.914,27.421-17.371L310.2,306.409Zm-149.676,30.3,61.813-5.15-2.971-10.5-64.1-19.795ZM26.051,254.3l2.4,32.116,57.7,58.576-12.91-95.842Zm467.306,75.441,35.305,5.858,8.226-44.437-27.763-4.948ZM296.152,259.145l30.506,69.886,26.166-16.664c-15.883-21.309-28.793-56.656-35.763-78.268ZM122.825,275.708l4.571,31L190.58,326.2l-16.34-57.263Zm63.183-38.781,22.852,80.288,58.157-10-26.051-76.249Zm241.766,33.226,49.815,44.538,21.481-59.485-32.334-14.643ZM272.729,287.12l8.684,25.449,26.621-11.31-16.223-37.064Zm70.382-17.169c5.6,13.23,12.112,26.258,19.2,35.853l19.081-14.543-16.91-28.581Zm27.079-9.391,15.995,27.066,23.537-17.977-20.68-15.554Zm-117-30.8,17.367,51L315,227.434c-.457-1.516-.914-2.929-1.257-4.242ZM85.35,247.833,89.006,274.7l83.749-10.906-7.084-24.643Zm319.459-34.539L393.04,250.055l21.366,16.058,67.526-51.2a36.879,36.879,0,0,1-4.456-9.493Zm-78.836,8.584c2.971,9.9,8.341,26.258,15.082,42.922l46.159-15.754L398.411,214Zm145.677,14.947,29.249,13.23,6.285-17.169a46.7,46.7,0,0,1-17.825-9.493Zm-452-23.43,4.113,23.027,46.046-4.948-6.4-24.036C54.387,208.648,35.992,211.174,19.652,213.395ZM81.808,230.16l82.836-8.989-3.2-10.7-85.806-3.535Zm102.258-11.11L234.8,213.6l-30.62-43.426Zm312.262-23.632c0,11.817,10.855,21.31,24.107,21.31s24.109-9.493,24.109-21.31-10.855-21.308-24.109-21.308C507.068,174.11,496.328,183.7,496.328,195.418ZM208.175,165.727l33.248,47.164,19.539-2.122.114-52.313Zm-33.82,45.548L205.2,136.54l-58.042-18.077Zm92.89-53.626-.115,52.515,64.784-6.969-6.855-53.525ZM14.511,185.016l4.113,23.027,43.417-5.858-5.827-22.117ZM100.2,140.378l12.567,62.717,47.188,1.919-19.881-67.967ZM59.07,143.812l15.2,57.665,32.221,1.313L94.034,140.883ZM335,180.169l2.857,22.319L374.3,198.55l-3.885-22.219Zm41.819-37.57,9.6,54.637,41.362-4.444-9.713-55.848Zm47.3-6.463,9.826,55.95,43.188-4.646a38.46,38.46,0,0,1,13.482-20.9l-20.337-36.762ZM7.77,148.155l5.712,31.509,41.247-4.848-7.884-29.994Zm323.23.808,3.313,25.853,35.19-3.736-4.683-26.764ZM450.512,53.525l57.927,104.224a2.97,2.97,0,0,0,.915-.2L493.814,47.061Zm55.3-8.28L521.35,156.335c1.485.1,2.856.2,4.341.3L550.257,38.679ZM210.574,154.618l51.987-7.171,21.708-68.675L247.021,66.351Zm58.614-8.08,31.649-4.343,14.739-52.92-25.594-8.584Zm38.048-5.15,47.53-6.565-4.913-33.933L321.174,91.3Zm-257.3-31.61,3.77,23.733,83.179-7.069-9.026-30.4ZM363.791,111.7l3.084,21.41,97.689-13.432L452,96.952ZM177.439,122.2l29.822,9.291,12.682-30.8L187.951,88.974Zm-32.106-10.1,26.394,8.282,10.625-33.529L132.538,68.471ZM352.365,32.216l10.626,74.128,39.99-6.666C398.3,87.661,380.93,41.811,375.1,26.661ZM98.375,67.462C84.549,75.34,66.612,81.2,46.16,85.54l2.971,18.986,77.237-13.634-10.4-35.549A131.866,131.866,0,0,1,98.375,67.462ZM381.043,25.247,409.036,98.77,449.254,92l-40.79-73.523ZM189.665,83.722,222,95.639,242.451,45.95,205.2,34.539Zm102.259-8.08,57.128,19.189L344.368,62.11,305.406,49.587ZM125.911,46.557l4.57,15.553L183.953,81.7l15.538-48.88L150.932,17.977A214.4,214.4,0,0,1,125.911,46.557ZM249.078,61.1l37.247,12.524,14.624-28.48,7.312-21.612-39.19-10.706Zm58.5-16.562,35.99,11.513L340.14,32.316,314.09,25.146ZM82.836,28.883,99.4,53.626a147.688,147.688,0,0,0,16.91-13.735L111.4,13.836Zm126.253-4.545,37.591,11.513,7.769-18.886L218.229,3.635ZM121.112,896ZM63.527,896ZM499.412,895.9ZM12.455,895.9Z" transform="translate(1.519)" fill="#fff"/>
    </g>
  </g>
</svg>
